Coordinates
nRows=7
nColumns=24

# SIMM Motion File Header:
name Coordinates
datacolumns 24
datarows 7
otherdata 1
range 1.08725000000000270000 1.10050000000000070000
endheader
time	pelvis_tx	pelvis_ty	pelvis_tz	pelvis_tilt	pelvis_list	pelvis_rotation	hip_flexion_r	hip_adduction_r	hip_rotation_r	knee_angle_r	ankle_angle_r	subtalar_angle_r	mtp_angle_r	hip_flexion_l	hip_adduction_l	hip_rotation_l	knee_angle_l	ankle_angle_l	subtalar_angle_l	mtp_angle_l	lumbar_extension	lumbar_bending	lumbar_rotation
      1.08725000000000270000	      0.59304696066366447000	      1.03235129573344620000	      0.05324343645163089100	      5.12429700288533670000	     -1.57822827701132430000	     -0.78541283733028344000	    -10.57894236442630200000	      3.93598026938668120000	     -2.49661675016995540000	     -7.15372488407267860000	      9.36272170531471910000	      0.19880643229990794000	      7.90703646722446600000	     20.17812349316825800000	     -5.15460486097861370000	     -8.95779645926986840000	    -30.74743779696334300000	     -0.01370561665871814600	      0.32292186066328643000	      4.63149911915275680000	    -16.67224300486099200000	      2.86383658955956120000	      2.26261168832996560000
      1.08975000000000350000	      0.59283299922312982000	      1.03207502926254000000	      0.05334549626177270000	      5.10794011594809390000	     -1.66012316288408330000	     -0.82275365392546140000	    -10.78522996268031700000	      4.01841293560976090000	     -2.41512834818148650000	     -7.04366702955798640000	      9.44150967320006810000	      0.19745215240578465000	      7.85945709168721680000	     20.16227082423914800000	     -5.21995481683915230000	     -9.07043825319252050000	    -29.84611025869386200000	     -0.06987301404272007500	      0.36884941961314804000	      4.68320026961585350000	    -16.66820696888283500000	      2.92802764648389720000	      2.30656511116405390000
      1.09150000000000080000	      0.59268495051049075000	      1.03187703701128260000	      0.05341254612792441200	      5.09650189259528120000	     -1.71692645219072610000	     -0.84876750177715743000	    -10.92973028186266000000	      4.07513434450188680000	     -2.35777698796881550000	     -6.96708856637014940000	      9.49123726818680780000	      0.19569588311687208000	      7.83468508859473900000	     20.14956809525309100000	     -5.26208327751152800000	     -9.14399459238053500000	    -29.21143434134848600000	     -0.15884314570877694000	      0.34504593882016366000	      4.78505937635205750000	    -16.66541571911813700000	      2.97243121776757850000	      2.33658352769601940000
      1.09400000000000160000	      0.59247624991061365000	      1.03158753861904030000	      0.05350259033528747400	      5.08028564291891270000	     -1.79772254281948630000	     -0.88600333084199190000	    -11.13629896234481000000	      4.15519658530686710000	     -2.27491225955545810000	     -6.85871884451197380000	      9.55708815697292380000	      0.19186914049799383000	      7.80719005327433630000	     20.12905493998269800000	     -5.31777622939938690000	     -9.24126244822251230000	    -28.30091219612832300000	     -0.34008677503973372000	      0.23975827272382352000	      4.99376697320059120000	    -16.66158449899760500000	      3.03545947944519010000	      2.37874699705492180000
      1.09650000000000250000	      0.59227169803391178000	      1.03128892779882820000	      0.05358817339937666000	      5.06402505385809130000	     -1.87914526476072810000	     -0.92411764700631316000	    -11.34256809429818200000	      4.23526507272617890000	     -2.18951916656240410000	     -6.75249663425500570000	      9.62465720722939720000	      0.18707210844770988000	      7.77663346893303940000	     20.10602679294429900000	     -5.37078010348962390000	     -9.32984213046601240000	    -27.39027709252835100000	     -0.52764023269660165000	      0.10859600564876289000	      5.19408751221980850000	    -16.65767374004780500000	      3.09884080534769300000	      2.42107511123650720000
      1.09900000000000330000	      0.59207230756433016000	      1.03097972808482830000	      0.05367211149564672700	      5.04747555697429280000	     -1.96230181488182740000	     -0.96394785418582007000	    -11.54807266402313300000	      4.31656575648282460000	     -2.10031778985912390000	     -6.64925766626814600000	      9.70177525138502970000	      0.18204093386254916000	      7.73054758609188570000	     20.08088357654061800000	     -5.42431379948260340000	     -9.41076861783160370000	    -26.48482217422164500000	     -0.65398196010987431000	      0.03155668707107570100	      5.29024974670153720000	    -16.65334765413663800000	      3.16341580862187890000	      2.46462805326702710000
      1.10050000000000070000	      0.59195544155182789000	      1.03078885725029950000	      0.05372241394825819800	      5.03737552998750540000	     -2.01325093154438010000	     -0.98881633606005059000	    -11.67096751982748500000	      4.36619141307329000000	     -2.04488884484272980000	     -6.58882952212993090000	      9.75413741533643730000	      0.17912919463393401000	      7.69293904744110700000	     20.06490499341587300000	     -5.45757081464076510000	     -9.45603161734706180000	    -25.94554318583994900000	     -0.68337708835200373000	      0.03649335541802151100	      5.27472464023214370000	    -16.65049841971245200000	      3.20288270389128190000	      2.49153516585787040000
